<?xml version="1.0" encoding="UTF-8"?>
<svg viewBox="0 0 640 480" xmlns="http://www.w3.org/2000/svg">
 <g fill-rule="evenodd" stroke-width="1.25">
  <path d="m285.83 66.117l16.525-20.592s15.494 0 28.92-5.7198c13.427-5.7199 42.346-4.5759 42.346-4.5759l-3.098 431.28-7.23 26.312s-54.74-46.903-54.74-49.191c0-2.2879-22.723-377.51-22.723-377.51z" fill="#8c6500"/>
  <path d="m291.8 45.674l13.636 449.12 58.441-2.4017-4.87-456.33s-29.22-4.8034-35.064 1.2008-34.091 9.6068-32.143 8.4059z" fill="#865500"/>
  <path transform="rotate(9.0485 323.35 111.9)" d="m89.108 95.426l20.412-5.8724s172.04-4.0655 180.78-3.6138c8.748 0.4518 8.748 2.2587 14.579 2.2587 5.832 0 111.78 1.3551 120.52 0.4517 8.748-0.9035 69.981 2.2586 76.785 3.6138 6.803 1.3551 55.401 24.393 55.401 24.845s-2.916 7.679-2.916 7.679-402.39 13.1-403.36 13.1c-0.972 0-62.206-42.01-62.206-42.462z" fill="#8c7300"/>
  <path transform="rotate(8.9964 317.13 126.66)" d="m103.83 90.432s185.06-5.7284 187.98-2.3868c2.922 3.3416 18.506 0.9547 21.428 0.9547s107.14-1.4321 118.83-0.4773c11.688 0.9547 57.466 4.2963 60.388 4.2963s61.362 27.688 61.362 28.165-54.544 36.28-54.544 36.28-216.23 5.729-224.02 3.342c-7.792-2.387-28.246-1.432-50.648 0.477-22.402 1.91-130.52 2.387-134.41 3.819-3.8961 1.433-9.7401 1.433-9.7401 1.433s12.662-15.754 15.584-19.096c2.922-3.341 12.662-8.115 14.61-10.502s-0.974-11.934-6.818-18.617c-5.8444-6.683-13.636-11.457-13.636-19.572 0-8.1161-2.9221-8.1161-2.9221-8.1161h16.558z" fill="#8c5700"/>
  <path transform="rotate(188.1 291.14 237.83)" d="m56.409 223.15l20.454-5.2325s172.4-3.6225 181.17-3.22c8.766 0.4025 8.766 2.0125 14.61 2.0125s112.01 1.2075 120.78 0.4025c8.766-0.80499 70.128 2.0125 76.946 3.22s55.518 21.735 55.518 22.138c0 0.4025-2.922 6.8424-2.922 6.8424s-403.24 11.672-404.21 11.672c-0.97401 0-62.336-37.432-62.336-37.835z" fill="#8c7300"/>
  <g fill="#8c5700">
   <path transform="rotate(186.97 299.26 217.64)" d="m85.83 180.52s185.17-5.8683 188.09-2.4451c2.9237 3.4232 18.517 0.97803 21.44 0.97803 2.9236 0 107.2-1.4671 118.9-0.48901 11.695 0.97806 57.499 4.4012 60.423 4.4012 2.9237 0 61.397 28.364 61.397 28.853 0 0.48904-54.575 37.166-54.575 37.166s-216.35 5.8683-224.15 3.4232c-7.7965-2.4451-28.262-1.4671-50.677 0.48904s-130.59 2.4451-134.49 3.9122c-3.8984 1.4676-9.7457 1.4676-9.7457 1.4676s12.669-16.138 15.593-19.562c2.9237-3.4232 12.669-8.3134 14.618-10.759 1.9491-2.4451-0.97454-12.226-6.8219-19.072-5.8474-6.8464-13.644-11.737-13.644-20.05 0-8.314-2.9238-8.314-2.9238-8.314h16.568z"/>
   <path transform="rotate(175.6 328.99 346.36)" d="m188.58 313.72s121.81-5.1602 123.74-2.1501c1.9234 3.0102 12.181 0.86002 14.105 0.86002 1.9233 0 70.524-1.29 78.217-0.42999 7.6934 0.86005 37.826 3.8702 39.749 3.8702 1.9233 0 40.39 24.942 40.39 25.372 0 0.43002-35.902 32.682-35.902 32.682s-142.33 5.1602-147.46 3.0101c-5.1289-2.1501-18.592-1.29-33.338 0.43002-14.746 1.7201-85.91 2.1501-88.475 3.4402-2.5646 1.2905-6.4113 1.2905-6.4113 1.2905s8.3346-14.191 10.258-17.201c1.9233-3.0101 8.3346-7.3103 9.6168-9.4604s-0.64111-10.75-4.4878-16.771c-3.8468-6.0203-8.9757-10.32-8.9757-17.631 0-7.3108-1.9234-7.3108-1.9234-7.3108h10.899z"/>
  </g>
 </g>
</svg>
